inDegrees=yes
name=ik_S47_A12_T02
DataType=double
version=3
OpenSimVersion=4.3-2021-08-27-4bc7ad9
endheader
time	pelvis_tilt	pelvis_list	pelvis_rotation	pelvis_tx	pelvis_ty	pelvis_tz	hip_flexion_r	hip_adduction_r	hip_rotation_r	knee_angle_r	knee_angle_r_beta	ankle_angle_r	subtalar_angle_r	mtp_angle_r	hip_flexion_l	hip_adduction_l	hip_rotation_l	knee_angle_l	knee_angle_l_beta	ankle_angle_l	subtalar_angle_l	mtp_angle_l	lumbar_extension	lumbar_bending	lumbar_rotation	arm_flex_r	arm_add_r	arm_rot_r	elbow_flex_r	pro_sup_r	wrist_flex_r	wrist_dev_r	arm_flex_l	arm_add_l	arm_rot_l	elbow_flex_l	pro_sup_l	wrist_flex_l	wrist_dev_l
4.12	-0.7245258204636	1.126120284065319	46.1619908621788	0	0.9399999999999999	0	21.47863343449267	-7.767355746048254	-6.66519525641533	24.69950607986225	0.4310877047099537	0	0	0	21.47863343449267	-7.767355746048254	-6.66519525641533	24.69950607986225	0.4310877047099537	0	0	0	0.1150805324681019	1.644901092628798	2.199205040710962	14.81984310970693	-11.46175246481499	-3.410421831839096	9.338217580691001	118.6581309900929	0	0	2.076003970925339	1.221795531646506	-7.558037121639304	-2.610381294296617	84.36747541715268	0	0
4.14	-0.7141587893339879	1.111141650279916	46.42599956379584	0	0.9399999999999999	0	21.4906655881284	-7.770971376528156	-6.668662693079362	24.71143072860604	0.4312958290926767	0	0	0	21.4906655881284	-7.770971376528156	-6.668662693079362	24.71143072860604	0.4312958290926767	0	0	0	0.1154183565110993	1.622885380798656	1.959759240197177	14.82879253073711	-11.42645364577175	-3.452004108352468	9.430728461139365	118.5767900145824	0	0	2.774068856298681	1.141745277225839	-9.923920564906041	-3.420121320507766	86.77809216507531	0	0
4.159999999999999	-0.6980431395362175	1.0680506083191	46.73668763789029	0	0.9399999999999999	0	21.62649243452901	-7.800728807463275	-6.701395928891583	24.87833850512436	0.4342089193401044	0	0	0	21.62649243452901	-7.800728807463275	-6.701395928891583	24.87833850512436	0.4342089193401044	0	0	0	0.09713699855903646	1.579104485130259	1.713020605720121	14.95906672444044	-11.32893308147455	-3.547972978898219	9.422033698811552	118.4259186213098	0	0	3.965912033896392	0.4709697153255319	-12.37874143175504	-3.216644930881276	84.9407263565505	0	0
4.179999999999999	-0.6750694206663367	1.025421217908945	47.0055218911595	0	0.9399999999999999	0	21.64001894123382	-7.804738305076381	-6.705266797383463	24.89179172234866	0.4344437222756543	0	0	0	21.64001894123382	-7.804738305076381	-6.705266797383463	24.89179172234866	0.4344437222756543	0	0	0	0.08496625094560002	1.527776070162382	1.557253376478478	15.0826006413942	-11.23104284604733	-3.737914655855731	9.300256516087851	118.3580961936077	0	0	4.496996658522151	0.3030353703253738	-12.17932044148599	-2.548810469198481	81.81788601081313	0	0
4.199999999999998	-0.6328302004292735	0.9416944862008325	46.99505840619944	0	0.9399999999999999	0	21.64823048928658	-7.807173136019365	-6.707617475679566	24.89995091527262	0.4345861270564828	0	0	0	21.64823048928658	-7.807173136019365	-6.707617475679566	24.89995091527262	0.4345861270564828	0	0	0	0.05007658063364467	1.443643635990409	1.731623534940112	15.11759103086655	-11.01294235362338	-4.051422742884841	9.358624002009561	118.2127834617843	0	0	5.225673210726428	0.1156666960308955	-11.40758230583972	-3.132064885332155	81.28759717447852	0	0
4.219999999999998	-0.6129170404554578	0.8203453852408829	47.3427221350272	0	0.9399999999999999	0	21.66468282118817	-7.812048037997358	-6.712326085824063	24.91629361835671	0.4348713610339761	0	0	0	21.66468282118817	-7.812048037997358	-6.712326085824063	24.91629361835671	0.4348713610339761	0	0	0	-0.02009730498242382	1.337876185233248	1.509280279002935	15.28803301778253	-10.78135101720657	-4.226776100027281	9.339175293651431	118.0554698280583	0	0	5.404046786763744	-0.3233228679143481	-11.23275474319019	-1.716179337808594	77.97194312697989	0	0
4.239999999999998	-0.6001763304386156	0.6705295843293478	47.39349475694565	0	0.9399999999999999	0	21.67982364474241	-7.816534307733144	-6.716660219598072	24.93131862316653	0.4351335968380353	0	0	0	21.67982364474241	-7.816534307733144	-6.716660219598072	24.93131862316653	0.4351335968380353	0	0	0	-0.1226000500502623	1.229143712941679	1.523140308584698	15.52765154298277	-10.47213814697502	-4.275824090708386	9.279324249665562	117.869986017049	0	0	7.017007864492747	-1.149176458292056	-11.04211072037117	-3.08747038262345	77.98385781312473	0	0
4.259999999999997	-0.5870265303187185	0.6035289784043281	47.62253018329501	0	0.9399999999999999	0	22.07491464651413	-7.898755774450642	-6.809586718858892	25.41818075009671	0.4436309439562296	0	0	0	22.07491464651413	-7.898755774450642	-6.809586718858892	25.41818075009671	0.4436309439562296	0	0	0	-0.1530821430518864	1.160567061246216	1.269593955890082	15.64713071266754	-10.22509985803896	-4.209169785045746	9.252123504402421	117.7175292385711	0	0	8.81609576386729	-2.784346326213673	-10.30061213176347	-0.8884236548355506	71.07183632181797	0	0
4.279999999999997	-0.5768481958305849	0.5325047893303698	47.52399045588888	0	0.9399999999999999	0	22.08952978016772	-7.903005617201943	-6.813734573003511	25.43261669734455	0.4438828987663486	0	0	0	22.08952978016772	-7.903005617201943	-6.813734573003511	25.43261669734455	0.4438828987663486	0	0	0	-0.1960612664944402	1.102656727012514	1.326726048729557	15.78179288377822	-10.00496319935914	-4.164083492094536	9.145340960160997	117.5321461908865	0	0	10.98245685384366	-4.259488969616019	-9.07784305184779	-0.5126052280740144	67.11320349073407	0	0
4.299999999999996	-0.6484190088649171	0.3304469451607453	47.37920358667482	0	0.9399999999999999	0	22.11682176721439	-7.910915041570271	-6.821470025673491	25.45956229608772	0.4443531881833382	0	0	0	22.11682176721439	-7.910915041570271	-6.821470025673491	25.45956229608772	0.4443531881833382	0	0	0	-0.3908210280034982	1.017391047565926	1.224533432228196	16.24385151009507	-9.607654132966699	-3.898121410578288	9.058854581652881	117.430618258077	0	0	13.88208140358487	-6.199853874141827	-8.287304574571261	-0.3530264066984156	63.57874112589022	0	0
4.319999999999996	-0.699321650580032	0.3054620823881707	47.37708293592142	0	0.9399999999999999	0	22.34037543948526	-7.957453581769137	-6.874050854949792	25.73256107753889	0.4491179157735934	0	0	0	22.34037543948526	-7.957453581769137	-6.874050854949792	25.73256107753889	0.4491179157735934	0	0	0	-0.4433557218348234	1.041295967522185	1.024421492030493	16.41073403760309	-9.502135762432664	-3.680727212552212	9.008405679758345	117.2680276213655	0	0	17.1624248643279	-8.333567064266392	-8.305202034986737	-0.6410521726879345	61.18837687328016	0	0
4.339999999999995	-0.7131341918570812	0.3302695393083047	47.48810019522401	0	0.9399999999999999	0	22.59294166098441	-8.00977282801292	-6.933304039012024	26.0400425186343	0.4544844793094855	0	0	0	22.59294166098441	-8.00977282801292	-6.933304039012024	26.0400425186343	0.4544844793094855	0	0	0	-0.4206367133789535	1.074265323957864	0.8147147092752495	16.39278878372431	-9.520965095630798	-3.568247059069761	9.015752680195407	117.1873790585182	0	0	24.44542349841338	-11.9371134909948	-7.827523856493461	-4.553853614998215	59.86139554601007	0	0
4.359999999999995	-0.7462265659955918	0.4056765156303739	47.51674331343971	0	0.9399999999999999	0	22.80922050050468	-8.054115084709663	-6.983784031581704	26.30249355047296	0.4590651139403265	0	0	0	22.80922050050468	-8.054115084709663	-6.983784031581704	26.30249355047296	0.4590651139403265	0	0	0	-0.3843125477118345	1.148115171832966	0.6655463034121046	16.38378433867724	-9.555108939254245	-3.433886998921691	8.961922222998668	117.1019324670436	0	0	28.42268756706783	-13.97695101223202	-7.508001278702503	-5.136669881628769	58.42331945422817	0	0
4.379999999999995	-0.8347412749301506	0.390413597202079	47.61288163131967	0	0.9399999999999999	0	23.10308534856322	-8.112939535932368	-7.051512944561142	26.66136736804325	0.4653286436561295	0	0	0	23.10308534856322	-8.112939535932368	-7.051512944561142	26.66136736804325	0.4653286436561295	0	0	0	-0.448665896711321	1.205825679742361	0.4078229897093913	16.58095823270578	-9.556509982021188	-3.371964776429432	8.951693241576807	117.1380107117022	0	0	32.93402163233228	-16.62334700640567	-7.161308633617369	-2.152301478506742	55.69517786449071	0	0
4.399999999999994	-0.9254287294572219	0.3842512425225928	47.49989027621507	0	0.9399999999999999	0	23.33926295869688	-8.159309900224596	-7.10541169760137	26.94963847639759	0.4703599236352861	0	0	0	23.33926295869688	-8.159309900224596	-7.10541169760137	26.94963847639759	0.4703599236352861	0	0	0	-0.5123229190405632	1.265205084497406	0.3174054979056064	16.71189047162911	-9.554194965779839	-3.33007082604483	8.959869849826751	117.0598248884351	0	0	37.39580343418247	-18.55038119800324	-6.338698962368957	-2.281438438331894	54.97856880316505	0	0
4.419999999999994	-0.9856646617718356	0.4430597708326057	47.33324507755579	0	0.9399999999999999	0	23.34536138650405	-8.160973221516986	-7.107091868889654	26.95558989924136	0.4704637955590882	0	0	0	23.34536138650405	-8.160973221516986	-7.107091868889654	26.95558989924136	0.4704637955590882	0	0	0	-0.5093729550303396	1.34957741413126	0.2429757944233045	16.75100877131047	-9.615633991208488	-3.254203693317471	8.97455913798172	116.9616196520836	0	0	37.29305188555457	-18.55948844590318	-6.638929040683824	-2.303441251560654	54.9445632380402	0	0
4.439999999999993	-1.059261992880505	0.4866326618304055	47.12276129802117	0	0.9399999999999999	0	23.57881235951926	-8.206416086174761	-7.160140441926848	27.2395116093564	0.4754191642184886	0	0	0	23.57881235951926	-8.206416086174761	-7.160140441926848	27.2395116093564	0.4754191642184886	0	0	0	-0.5262778660364522	1.432733370684889	0.2072063389645045	16.85873411455531	-9.699942132549909	-3.171760967284896	8.924245999776312	116.8453358754167	0	0	41.67197961522869	-20.28064496952325	-5.388930284073884	-2.210728642554621	54.22242103656504	0	0
4.459999999999993	-1.184033234010203	0.5365092129826472	46.80898844298567	0	0.9399999999999999	0	23.81246090741377	-8.251137293816249	-7.212771147636294	27.52396243712277	0.4803837677230351	0	0	0	23.81246090741377	-8.251137293816249	-7.212771147636294	27.52396243712277	0.4803837677230351	0	0	0	-0.5704897280401238	1.542271436752788	0.1328153211518814	17.0352105626134	-9.796343420134116	-2.912663517863367	8.86560169011593	116.7320874485383	0	0	46.22337858439669	-21.87787004201889	-4.166602152672647	-2.014198432145396	53.61544896369511	0	0
4.479999999999992	-1.188943139968873	0.5348716688635483	46.73300856672108	0	0.9399999999999999	0	24.04874276023054	-8.295821845814443	-7.265668443180238	27.81111468094875	0.485395519832288	0	0	0	24.04874276023054	-8.295821845814443	-7.265668443180238	27.81111468094875	0.485395519832288	0	0	0	-0.5728923116321739	1.5444532097068	0.210619909638311	17.03963489609966	-9.807398209788673	-3.092761052963216	8.870773284857714	116.7554203589149	0	0	51.00340764807004	-23.08928778735832	-2.485250933050903	-1.779541708473311	53.33219968665961	0	0
4.499999999999992	-1.326935240032153	0.6559486712872279	46.20864969143446	0	0.9399999999999999	0	24.25868414371908	-8.335120761109481	-7.312418664102315	28.0658464603717	0.4898414280926824	0	0	0	24.25868414371908	-8.335120761109481	-7.312418664102315	28.0658464603717	0.4898414280926824	0	0	0	-0.5720452129130689	1.701864369888835	0.1495512932423451	17.16885021733938	-10.03118921330447	-2.829070784701202	8.811401825023957	116.4851120720845	0	0	55.41928045655915	-24.15621526882609	-1.332620766060074	-1.570597534740112	53.22864094571357	0	0
4.519999999999992	-1.411156135688634	0.7010626062989299	45.85781324726328	0	0.9399999999999999	0	24.50347666481712	-8.380679530462876	-7.366788489626265	28.36118950298707	0.4949961366091786	0	0	0	24.50347666481712	-8.380679530462876	-7.366788489626265	28.36118950298707	0.4949961366091786	0	0	0	-0.5713609472598523	1.700391430282034	0.3653774972178819	17.21649165229178	-10.10529037760049	-2.673210771230757	8.659704953400796	116.1030751505445	0	0	64.61069404827913	-24.75987357459703	2.857007220944135	-5.467648110704745	52.85223834774788	0	0
4.539999999999991	-1.486911439542227	0.7450930691139052	45.33858151416987	0	0.9399999999999999	0	24.7888071991243	-8.432344468409015	-7.42923755727771	28.70789096024653	0.5010472185598186	0	0	0	24.7888071991243	-8.432344468409015	-7.42923755727771	28.70789096024653	0.5010472185598186	0	0	0	-0.5903275298293094	1.761718978495614	0.6014712696052178	17.30697178288246	-10.18861590109509	-2.549715778309675	8.600834669499632	115.9636238535117	0	0	68.98937404183775	-25.07405566442355	4.923793745428706	-1.255277900054788	52.31042341901104	0	0
